<svg xmlns="http://www.w3.org/2000/svg" xmlns:xlink="http://www.w3.org/1999/xlink" width="300" zoomAndPan="magnify" viewBox="0 0 375 374.999991" height="300" preserveAspectRatio="xMidYMid meet" version="1.0"><defs><clipPath id="d281d4467a"><path d="M 89 18.800781 L 291 18.800781 L 291 288 L 89 288 Z M 89 18.800781 " clip-rule="nonzero"/></clipPath><clipPath id="f240de6203"><path d="M 58.867188 308 L 318.367188 308 L 318.367188 359.300781 L 58.867188 359.300781 Z M 58.867188 308 " clip-rule="nonzero"/></clipPath><clipPath id="dbf056b0e3"><path d="M 58.867188 318 L 318.367188 318 L 318.367188 359.300781 L 58.867188 359.300781 Z M 58.867188 318 " clip-rule="nonzero"/></clipPath></defs><g clip-path="url(#d281d4467a)"><path fill="#77767b" d="M 189.96875 18.957031 C 89.640625 18.957031 89.65625 94.023438 89.65625 94.023438 L 89.65625 287.089844 L 290.285156 287.089844 L 290.285156 94.023438 C 290.285156 94.023438 289.414062 18.957031 189.96875 18.957031 Z M 189.96875 18.957031 " fill-opacity="1" fill-rule="nonzero"/></g><g clip-path="url(#f240de6203)"><path fill="#5c5b5f" d="M 58.867188 308.5625 L 318.351562 308.5625 L 318.351562 359.125 L 58.867188 359.125 Z M 58.867188 308.5625 " fill-opacity="1" fill-rule="nonzero"/></g><path fill="#565558" d="M 70.394531 281.171875 L 306.824219 281.171875 L 306.824219 327.242188 L 70.394531 327.242188 Z M 70.394531 281.171875 " fill-opacity="1" fill-rule="nonzero"/><g clip-path="url(#dbf056b0e3)"><path fill="#77767b" d="M 58.867188 318.40625 L 318.351562 318.40625 L 318.351562 359.125 L 58.867188 359.125 Z M 58.867188 318.40625 " fill-opacity="1" fill-rule="nonzero"/></g><path fill="#48484b" d="M 124.554688 295.695312 C 124.554688 295.695312 137.851562 292.40625 153.367188 292.734375 C 168.882812 293.0625 183.734375 287.804688 183.734375 287.804688 C 183.734375 287.804688 166.445312 295.695312 153.8125 296.023438 C 141.175781 296.351562 140.289062 294.378906 124.554688 295.695312 Z M 124.554688 295.695312 " fill-opacity="1" fill-rule="nonzero"/><path fill="#48484b" d="M 229.316406 302.335938 C 229.316406 302.335938 239.347656 297.214844 251.828125 294.570312 C 264.3125 291.929688 275.21875 284.9375 275.21875 284.9375 C 275.21875 284.9375 262.851562 294.488281 252.800781 297.121094 C 242.746094 299.75 241.667969 298.335938 229.316406 302.335938 Z M 229.316406 302.335938 " fill-opacity="1" fill-rule="nonzero"/><path fill="#515053" d="M 189.96875 32.917969 C 105.160156 32.917969 104.722656 98.335938 104.722656 98.335938 L 104.722656 281.171875 L 275.21875 281.171875 L 275.21875 98.335938 C 275.21875 98.335938 275.09375 32.917969 189.96875 32.917969 Z M 189.96875 32.917969 " fill-opacity="1" fill-rule="nonzero"/><path fill="#656468" d="M 189.96875 38.027344 C 110.960938 38.027344 110.992188 98.632812 110.992188 98.632812 L 110.992188 275.234375 L 268.949219 275.234375 L 268.949219 98.632812 C 268.949219 98.632812 268.980469 38.027344 189.96875 38.027344 Z M 189.96875 38.027344 " fill-opacity="1" fill-rule="nonzero"/><path fill="#48484b" d="M 149.257812 93.566406 C 149.257812 93.566406 159.289062 88.441406 171.773438 85.800781 C 184.253906 83.15625 195.160156 76.164062 195.160156 76.164062 C 195.160156 76.164062 182.792969 85.71875 172.742188 88.347656 C 162.6875 90.976562 161.609375 89.566406 149.257812 93.566406 Z M 149.257812 93.566406 " fill-opacity="1" fill-rule="nonzero"/><path fill="#737176" d="M 157.53125 164.289062 C 157.53125 164.289062 175.703125 163.789062 182.355469 162.683594 C 189.003906 161.574219 199.140625 153.359375 199.140625 153.359375 L 178.808594 157.046875 Z M 157.53125 164.289062 " fill-opacity="1" fill-rule="nonzero"/><path fill="#48484b" d="M 143.703125 168.199219 C 143.703125 168.199219 161.203125 159.261719 182.972656 154.652344 C 204.742188 150.046875 223.761719 137.851562 223.761719 137.851562 C 223.761719 137.851562 202.199219 154.511719 184.664062 159.097656 C 167.132812 163.683594 165.25 161.222656 143.703125 168.199219 Z M 143.703125 168.199219 " fill-opacity="1" fill-rule="nonzero"/><path fill="#565558" d="M 202.082031 318.40625 C 202.082031 318.40625 202.082031 327.242188 202.082031 327.242188 C 202.082031 327.242188 195.429688 333.660156 194.765625 336.210938 C 194.101562 338.765625 187.453125 345.527344 187.453125 345.527344 C 187.453125 345.527344 197.316406 338.320312 199.089844 335.324219 C 200.863281 332.332031 206.402344 327.242188 206.402344 327.242188 L 210.945312 318.40625 Z M 202.082031 318.40625 " fill-opacity="1" fill-rule="nonzero"/></svg>
